<svg width="388" height="300" viewBox="0 0 388 300" fill="none" xmlns="http://www.w3.org/2000/svg">
<g clip-path="url(#clip0_564_216)">
<path d="M5.46724 47.6036C11.1559 46.3497 14.0738 55.9917 14.0738 70.0613C14.0738 75.2411 13.7534 80.5075 12.7317 85.0734C11.1472 92.2854 8.80076 94.404 5.81358 94.4473L1.31982 94.5078V48.5116L5.45858 47.6036H5.46724ZM6.15126 83.1017C8.47174 82.7385 8.80942 75.6649 8.80942 71.0298C8.80942 66.3947 8.44576 58.8281 6.15126 59.2173V83.1017Z" fill="#F56674"/>
<path d="M16.3596 94.3094V45.2174L26.7758 42.9258V54.9891L21.8664 55.8279V63.1351L26.2563 62.5124V74.0915L21.8664 74.5065V82.1856L26.7758 81.8742V94.1624L16.3596 94.3007V94.3094Z" fill="#F56674"/>
<path d="M40.2137 58.2761C39.3825 55.5781 38.0231 52.7417 36.4386 53.0184C35.6334 53.1568 34.8022 54.4885 34.8022 56.4774C34.8022 61.8735 40.9064 62.4788 40.9064 76.6089C40.9064 86.6746 37.8846 94.9849 33.4255 95.0281C31.8236 95.0454 30.2738 94.2066 28.8451 92.8316V76.6435C29.7456 79.4453 31.0444 82.1606 32.6722 82.0655C33.564 82.0136 34.4905 80.7683 34.4905 78.4681C34.4905 72.8472 28.7412 71.6192 28.7412 58.5355C28.7412 49.5508 31.5119 40.9551 35.6334 40.0385C37.2092 39.6839 38.7764 40.3844 40.2137 41.768V58.2848V58.2761Z" fill="#F56674"/>
<path d="M43.4692 93.9369V39.2586L50.3095 37.7539V93.8418L43.4692 93.9369Z" fill="#F56674"/>
<path d="M74.787 60.6966C74.787 68.3064 74.5532 77.2133 72.7609 84.1573C70.9426 91.1185 67.6005 94.6813 63.9379 94.7159C55.8769 94.7937 53.2966 79.773 53.2966 65.7467C53.2966 51.7204 55.8336 35.5063 63.9379 33.699C68.8386 32.6007 72.1635 37.8584 74.1376 46.5146L66.2844 53.571C66.1545 51.0113 65.4964 47.6561 63.9899 47.9155C60.8382 48.4603 60.8382 61.8294 60.8382 66.2829C60.8382 70.3904 60.7949 80.6983 63.7301 80.5253C65.8947 80.3956 66.4575 75.3714 66.4575 71.8086L63.6002 72.068V59.7194L74.787 58.232V60.7052V60.6966Z" fill="#F56674"/>
<path d="M93.1863 93.2633C90.7533 81.0271 88.0951 69.1021 86.2422 56.8054C86.4933 63.5331 86.7963 70.3733 86.7963 77.1443V93.3584L78.4062 93.4709V31.5805L86.7963 29.7386L91.3767 51.3747C92.4676 56.5546 93.3508 61.9939 94.2426 67.364C93.7145 59.4169 93.195 51.5995 93.195 43.5141V28.329L102.442 26.2969V93.1336L93.195 93.2633H93.1863Z" fill="#F56674"/>
<path d="M15.1993 153.415L14.7837 131.087C14.7231 128.156 14.7231 125.155 14.6625 122.223C14.5413 125.354 14.3681 128.467 14.1343 131.502L12.5065 152.775L8.33314 151.789L6.89583 128.761C6.73132 126.34 6.64473 123.858 6.5668 121.376C6.54083 124.835 6.5668 128.363 6.48022 131.814L6.03864 151.253L0.878174 150.034L2.93024 104.193L9.05179 104.375C9.61459 112.901 10.264 121.264 10.5237 129.911C10.8961 121.333 11.6667 112.971 12.2987 104.47L18.8878 104.669L20.888 154.755L15.1907 153.415H15.1993Z" fill="#F56674"/>
<path d="M38.5944 143.237C38.5944 148.624 38.0576 152.058 36.222 155.179C34.7241 157.782 32.9318 158.543 31.0356 158.085C29.0008 157.601 26.9574 155.802 25.4682 152.317C23.8057 148.46 23.3901 143.747 23.3901 138.671V104.799L29.226 104.972V138.412C29.226 141.049 29.2606 144.543 30.7585 144.828C32.2564 145.114 32.317 141.585 32.317 138.913V105.067L38.5858 105.248V143.237H38.5944Z" fill="#F56674"/>
<path d="M54.0327 124.975C53.1149 121.913 51.6083 118.567 49.8507 118.428C48.9588 118.359 48.0324 119.544 48.0324 121.628C48.0324 127.301 54.7947 129.584 54.7947 144.457C54.7947 155.059 51.4525 162.972 46.5085 161.796C44.7421 161.372 43.0278 160.066 41.4519 158.224V141.223C42.439 144.406 43.885 147.622 45.6773 147.96C46.6643 148.141 47.686 147.086 47.686 144.674C47.686 138.759 41.3394 135.922 41.3394 122.173C41.3394 112.738 44.4045 104.445 48.9588 104.558C50.7078 104.601 52.4395 105.751 54.0327 107.584V124.975Z" fill="#F56674"/>
<path d="M57.6433 163.421V105.82L72.0857 106.244V120.504L65.2455 119.968V128.572L71.3584 129.229V142.91L65.2455 141.967V151.012L72.0857 152.283V166.811L57.6433 163.404V163.421Z" fill="#F56674"/>
<path d="M98.2861 153.709C98.2861 160.333 97.4809 164.519 94.7102 168.246C92.459 171.333 89.7748 172.154 86.9435 171.471C83.913 170.745 80.8912 168.436 78.6919 164.112C76.2416 159.33 75.6355 153.597 75.6355 147.44V106.355L84.2594 106.615V147.379C84.2594 150.596 84.3113 154.859 86.5452 155.283C88.7791 155.707 88.8657 151.4 88.8657 148.132V106.753L98.2861 107.03V153.718V153.709Z" fill="#F56674"/>
<path d="M133.691 181.338L132.764 147.812C132.635 143.41 132.635 138.922 132.496 134.529C132.228 139.208 131.838 143.86 131.31 148.374L127.673 179.929L118.469 177.758L115.326 143.575C114.971 139.986 114.789 136.328 114.608 132.661C114.547 137.746 114.608 142.952 114.426 148.019L113.473 176.574L102.425 173.971L106.798 107.264L120.045 107.653C121.283 120.304 122.712 132.757 123.275 145.607C124.089 132.895 125.803 120.503 127.206 107.86L142.046 108.301L146.635 184.382L133.674 181.33L133.691 181.338Z" fill="#F56674"/>
<path d="M5.46724 160.948C11.1559 162.53 14.0738 173.625 14.0738 187.695C14.0738 192.875 13.7534 197.985 12.7317 202.041C11.1472 208.466 8.80076 209.409 5.81358 207.964L1.31982 205.785V159.789L5.45858 160.939L5.46724 160.948ZM6.15126 196.783C8.47174 197.579 8.80942 190.669 8.80942 186.034C8.80942 181.399 8.44576 173.66 6.15126 172.899V196.783Z" fill="#F56674"/>
<path d="M24.9315 217.234L24.4813 210.55L20.6802 208.803L20.2126 214.951L14.6106 212.236L19.442 164.848L26.3775 166.785L31.0358 220.2L24.9229 217.234H24.9315ZM23.8146 199.455C23.373 192.226 22.992 185.04 22.7409 177.845C22.611 180.145 22.5245 182.532 22.3946 184.823C22.1089 189.398 21.7971 193.947 21.4248 198.461L23.8146 199.455Z" fill="#F56674"/>
<path d="M43.3568 226.168C41.6251 214.986 39.7376 203.961 38.4128 192.892C38.5946 198.668 38.8025 204.557 38.8025 210.273V223.962L32.7935 221.048V168.566L38.8025 170.244L42.058 190.237C42.8287 195.011 43.4607 199.914 44.0928 204.756C43.7205 197.882 43.3482 191.102 43.3482 184.296V171.515L49.8767 173.331V229.333L43.3482 226.168H43.3568Z" fill="#F56674"/>
<path d="M75.0209 241.524L74.3715 213.385C74.2763 209.693 74.2763 205.94 74.1897 202.247C74.0078 206.113 73.7308 209.935 73.3585 213.627L70.8129 239.484L64.3276 236.344L62.1024 207.099C61.8513 204.02 61.7214 200.907 61.5916 197.794C61.5483 202.074 61.5916 206.467 61.4617 210.705L60.7863 234.624L52.8984 230.801L56.0328 175.051L65.4446 177.68C66.3191 188.515 67.3235 199.203 67.7218 210.082C68.2932 199.549 69.4968 189.432 70.4838 179.089L80.8221 181.969L83.9911 245.891L75.0036 241.533L75.0209 241.524Z" fill="#F56674"/>
<path d="M103.602 255.387L102.823 246.48L96.2428 243.462L95.4462 251.427L85.8872 246.791L94.1301 185.662L106.131 189.009L114.313 260.576L103.602 255.378V255.387ZM101.663 231.753C100.892 222.163 100.234 212.651 99.8014 203.156C99.5849 206.165 99.4204 209.287 99.204 212.288C98.7191 218.255 98.1736 224.178 97.5329 230.041L101.663 231.753Z" fill="#F56674"/>
<path d="M135.232 270.72C132.964 259.53 130.66 248.461 128.513 237.479C128.643 240.67 128.704 243.947 128.704 247.086V267.555L117.43 262.09V192.166L128.955 195.383C131.959 196.222 135.284 197.7 138.193 200.52C143.735 205.942 146.575 216.12 146.575 225.684C146.575 234.565 144.375 240.082 139.362 241.811L148.809 277.31L135.223 270.72H135.232ZM129.483 229.074C132.496 230.198 134.228 226.229 134.228 221.602C134.228 215.661 132.037 212.643 128.712 211.554V228.78L129.491 229.074H129.483Z" fill="#F56674"/>
<path d="M176.316 290.643L166.55 247.621L166.948 286.094L153.138 279.392V202.109L166.948 205.958L166.55 241.611L175.156 208.249L191.573 212.824L179.182 249.264L193.201 298.815L176.325 290.634L176.316 290.643Z" fill="#F56674"/>
<path d="M222.984 91.0353L218.698 121.068C222.898 116.779 226.093 115.482 230.491 116.2C239.998 117.756 245.721 128.176 245.721 143.336C245.721 151.637 244.327 160.397 241.842 168.007C237.963 179.474 231.729 186.063 224.179 186.219C218.603 186.331 214.508 183.702 210.516 177.545L209.529 184.645L195 184.878L209.529 88L222.984 91.0353ZM213.824 156.912C213.824 164.799 216.508 169.728 220.75 169.823C224.993 169.918 228.43 165.845 230.301 159.316C231.539 154.724 232.422 148.766 232.422 144.399C232.422 136.884 230.041 132.223 225.997 131.739C219.157 130.909 213.824 141.874 213.824 156.921V156.912Z" fill="white"/>
<path d="M254.328 140.438C256.493 127.501 262.839 121.5 272.216 123.039C280.771 124.44 285.247 130.571 285.247 140.325C285.247 143.266 284.988 147.702 284.659 150.495L282.096 171.984C281.697 175.305 281.498 177.553 281.498 179.577V183.494L271.654 183.65V178.262C268.026 183.459 265.411 185.37 261.419 185.448C254.709 185.587 249.912 178.262 249.912 167.712C249.912 160.414 252.215 153.669 255.8 150.331C258.25 148.108 260.9 147.2 266 146.776L270.667 146.344C274.866 145.894 276.243 144.692 276.243 141.432C276.243 138.535 274.45 136.503 271.446 136.123C268.441 135.742 266.433 137.61 265.489 141.614L254.328 140.429V140.438ZM274.45 156.531C273.195 156.937 271.939 157.223 270.242 157.612L267.091 158.165C263.289 158.944 261.281 161.607 261.281 166.026C261.281 169.303 263.064 171.984 265.272 172.027C269.177 172.096 272.225 167.998 273.55 161.227L274.45 156.54V156.531Z" fill="white"/>
<path d="M303.145 129.533L302.331 136.417C304.244 131.479 306.296 129.819 309.942 130.398C310.331 130.458 311.041 130.683 311.924 130.925L310.219 146.699C309.335 146.387 308.885 146.344 308.331 146.283C303.673 145.791 301.404 149.345 300.339 158.987L297.603 183.226L288.841 183.364L295.248 128.279L303.153 129.533H303.145Z" fill="white"/>
<path d="M319.648 161.763L319.596 163.545C319.596 169.217 321.501 172.927 324.444 172.979C326.436 173.014 327.717 171.301 328.644 167.661L335.718 167.929C333.666 178.643 329.856 184.022 323.89 184.143C316.557 184.299 312.097 176.092 312.097 161.979C312.097 153.79 313.673 145.35 316.193 139.885C318.929 134.031 322.739 131.289 327.085 131.998C333.484 133.045 337.198 141.251 337.198 154.075C337.198 156.938 337.103 159.005 336.739 162.732L319.656 161.763H319.648ZM330.713 152.294C330.765 146.137 329.605 143.37 326.825 143.024C323.882 142.661 321.907 145.333 320.834 151.377L330.722 152.294H330.713Z" fill="white"/>
<path d="M346.55 163.294L346.506 164.912C346.506 170.057 348.073 173.421 350.498 173.464C352.143 173.49 353.199 171.933 353.97 168.621L359.84 168.837C358.135 178.609 354.974 183.504 350.048 183.599C344.013 183.729 340.35 176.292 340.35 163.519C340.35 156.108 341.64 148.455 343.71 143.483C345.961 138.147 349.095 135.605 352.68 136.184C357.979 137.049 361.07 144.486 361.07 156.186C361.07 158.798 360.992 160.683 360.689 164.081L346.558 163.277L346.55 163.294ZM355.693 154.621C355.736 149.017 354.775 146.51 352.472 146.224C350.048 145.922 348.411 148.369 347.528 153.869L355.693 154.63V154.621Z" fill="white"/>
<path d="M371.607 140.412L371.296 143.984C372.897 140.784 374.136 139.703 375.867 139.988C378.664 140.447 380.396 144.961 380.396 151.602C380.396 154.006 380.266 156.903 379.971 160.449L378.17 181.929L373.382 182.007L375.426 158.062C375.599 156.125 375.625 155.45 375.625 154.352C375.625 151.559 374.949 149.777 373.824 149.639C371.884 149.406 370.698 152.804 369.988 160.544L368.135 182.093L362.923 182.18L366.733 139.643L371.616 140.421L371.607 140.412Z" fill="white"/>
<path d="M387.487 147.987C387.487 151.671 386.353 154.525 384.959 154.378C383.565 154.231 382.353 151.04 382.353 147.295C382.353 143.551 383.521 140.663 384.985 140.905C386.361 141.138 387.487 144.355 387.487 147.996V147.987ZM382.889 147.356C382.889 150.374 383.824 152.959 384.95 153.089C386.076 153.219 386.976 150.893 386.976 147.909C386.976 144.926 386.076 142.34 384.985 142.167C383.824 141.977 382.898 144.26 382.898 147.356H382.889ZM385.071 143.854C385.383 143.906 385.565 144.027 385.738 144.303C385.98 144.71 386.11 145.341 386.11 146.093C386.11 146.923 385.946 147.503 385.643 147.823C385.963 148.238 386.058 148.731 386.067 150.296C386.084 150.858 386.102 151.23 386.136 151.446L385.496 151.368C385.47 151.187 385.444 150.953 385.426 150.408C385.4 149.284 385.374 148.947 385.288 148.688C385.21 148.445 385.045 148.264 384.855 148.247L384.526 148.203V151.256L383.842 151.178V143.672L385.054 143.862L385.071 143.854ZM384.543 147.174L384.933 147.226C385.296 147.278 385.461 146.932 385.461 146.137C385.461 145.341 385.314 144.969 384.976 144.926L384.552 144.865V147.174H384.543Z" fill="white"/>
<path d="M193.755 1.26172V298.832" stroke="#231F20" stroke-width="3" stroke-miterlimit="10"/>
<path d="M193.755 1.26172L1.32837 45.8397" stroke="#231F20" stroke-width="3" stroke-miterlimit="10"/>
<path d="M193.755 298.832L387.315 205.084" stroke="#231F20" stroke-width="3" stroke-miterlimit="10"/>
</g>
<defs>
<clipPath id="clip0_564_216">
<rect width="387" height="300" fill="white" transform="translate(0.886719)"/>
</clipPath>
</defs>
</svg>
