<svg width="46" height="46" viewBox="0 0 46 46" fill="none" xmlns="http://www.w3.org/2000/svg">
<mask id="mask0_564_261" style="mask-type:luminance" maskUnits="userSpaceOnUse" x="0" y="0" width="46" height="46">
<path d="M46 0H0V46H46V0Z" fill="white"/>
</mask>
<g mask="url(#mask0_564_261)">
<path fill-rule="evenodd" clip-rule="evenodd" d="M0 23.1284C0 34.5642 8.30555 44.0726 19.1667 46V29.3888H13.4167V23H19.1667V17.8889C19.1667 12.1389 22.8722 8.94443 28.1112 8.94443C29.7722 8.94443 31.5612 9.19998 33.2222 9.45553V15.3333H30.2833C27.4722 15.3333 26.8333 16.7389 26.8333 18.5278V23H32.9667L31.9445 29.3888H26.8333V46C37.6945 44.0726 46 34.5642 46 23.1284C46 10.4078 35.65 0 23 0C10.35 0 0 10.4078 0 23.1284Z" fill="white"/>
</g>
</svg>
