<svg width="51" height="49" viewBox="0 0 51 49" fill="none" xmlns="http://www.w3.org/2000/svg">
<path fill-rule="evenodd" clip-rule="evenodd" d="M15.863 2.17577C18.3563 2.06596 19.1511 2.04102 25.5 2.04102C31.8501 2.04102 32.6436 2.06721 35.1356 2.17577C37.625 2.28432 39.325 2.66487 40.8119 3.22008C42.3714 3.78421 43.7841 4.66811 44.9518 5.81028C46.1408 6.93203 47.0609 8.28946 47.6478 9.7879C48.2256 11.2165 48.6204 12.8497 48.7347 15.2403C48.8491 17.6358 48.875 18.3994 48.875 24.4993C48.875 30.5992 48.8478 31.3628 48.7347 33.7585C48.6217 36.1489 48.2256 37.7822 47.6478 39.2108C47.0505 40.6869 46.2504 41.9407 44.9518 43.1884C43.7843 44.3307 42.3714 45.2147 40.8119 45.7786C39.325 46.3338 37.625 46.7131 35.1371 46.8229C32.6436 46.9328 31.8489 46.9577 25.5 46.9577C19.1511 46.9577 18.3563 46.9315 15.863 46.8229C13.3749 46.7143 11.675 46.3338 10.1881 45.7786C8.65181 45.2047 7.34672 44.436 6.04811 43.1884C4.85911 42.0667 3.93907 40.7092 3.35219 39.2108C2.77431 37.7822 2.37953 36.1489 2.26525 33.7585C2.15097 31.3628 2.125 30.6005 2.125 24.4993C2.125 18.3982 2.15226 17.6358 2.26525 15.2415C2.37824 12.8497 2.77431 11.2165 3.35219 9.7879C3.93935 8.28956 4.85932 6.9322 6.04811 5.81028C7.21563 4.66791 8.62846 3.78395 10.1881 3.22008C11.675 2.66487 13.3749 2.28557 15.863 2.17577ZM34.946 6.21827C32.4813 6.11096 31.7411 6.08725 25.5 6.08725C19.2589 6.08725 18.5187 6.11096 16.0539 6.21827C13.7748 6.31808 12.5373 6.68364 11.7139 6.99183C10.6231 7.39857 9.84393 7.88516 9.02581 8.67121C8.209 9.45725 7.70123 10.2059 7.27789 11.2539C6.95712 12.045 6.57664 13.234 6.47275 15.4237C6.36106 17.7918 6.33639 18.503 6.33639 24.4993C6.33639 30.4957 6.36106 31.2068 6.47275 33.575C6.57664 35.7647 6.95712 36.9537 7.27789 37.7449C7.65236 38.7204 8.24965 39.6028 9.02581 40.3276C9.77997 41.0732 10.6985 41.6471 11.7139 42.0068C12.5373 42.3151 13.7748 42.6806 16.0539 42.7804C18.5187 42.8878 19.2576 42.9115 25.5 42.9115C31.7424 42.9115 32.4813 42.8878 34.946 42.7804C37.2251 42.6806 38.4627 42.3151 39.2862 42.0068C40.3769 41.6001 41.1562 41.1136 41.9743 40.3276C42.7503 39.603 43.3477 38.7204 43.7221 37.7449C44.043 36.9537 44.4233 35.7647 44.5273 33.575C44.639 31.2068 44.6637 30.4957 44.6637 24.4993C44.6637 18.503 44.639 17.7918 44.5273 15.4237C44.4233 13.234 44.043 12.045 43.7221 11.2539C43.2988 10.2059 42.7924 9.45725 41.9743 8.67121C41.1562 7.88643 40.3769 7.39857 39.2862 6.99183C38.4627 6.68364 37.2251 6.31808 34.946 6.21827ZM22.5154 31.4224C23.4617 31.7991 24.4757 31.9929 25.5 31.9929C27.5687 31.9929 29.5524 31.2034 31.015 29.7981C32.4779 28.3928 33.2996 26.4867 33.2996 24.4993C33.2996 22.512 32.4779 20.6059 31.015 19.2006C29.5524 17.7953 27.5687 17.0057 25.5 17.0057C24.4757 17.0057 23.4617 17.1996 22.5154 17.5762C21.569 17.9527 20.7093 18.5047 19.985 19.2006C19.2608 19.8964 18.6863 20.7225 18.2943 21.6316C17.9023 22.5408 17.7006 23.5153 17.7006 24.4993C17.7006 25.4834 17.9023 26.4579 18.2943 27.3671C18.6863 28.2762 19.2608 29.1023 19.985 29.7981C20.7093 30.4939 21.569 31.046 22.5154 31.4224ZM17.0044 16.3368C19.2576 14.1719 22.3136 12.9557 25.5 12.9557C28.6866 12.9557 31.7426 14.1719 33.9958 16.3368C36.2489 18.5016 37.5147 21.4379 37.5147 24.4993C37.5147 27.5608 36.2489 30.497 33.9958 32.6619C31.7426 34.8267 28.6866 36.0429 25.5 36.0429C22.3136 36.0429 19.2576 34.8267 17.0044 32.6619C14.7512 30.497 13.4853 27.5608 13.4853 24.4993C13.4853 21.4379 14.7512 18.5016 17.0044 16.3368ZM40.1789 14.6756C40.7114 14.1639 41.0106 13.4698 41.0106 12.7461C41.0106 12.0224 40.7114 11.3284 40.1789 10.8167C39.6461 10.3049 38.9238 10.0175 38.1705 10.0175C37.4174 10.0175 36.6949 10.3049 36.1624 10.8167C35.6297 11.3284 35.3305 12.0224 35.3305 12.7461C35.3305 13.4698 35.6297 14.1639 36.1624 14.6756C36.6949 15.1873 37.4174 15.4748 38.1705 15.4748C38.9238 15.4748 39.6461 15.1873 40.1789 14.6756Z" fill="white"/>
</svg>
